<?xml version="1.0" encoding="UTF-8"?>
<svg xmlns="http://www.w3.org/2000/svg" version="1.1" viewBox="0 0 150.5 46.2">
  <defs>
    <style>
      .cls-1 {
        fill: #fff;
      }

      .cls-2 {
        fill: #ec1c24;
      }
    </style>
  </defs>
  <!-- Generator: Adobe Illustrator 28.6.0, SVG Export Plug-In . SVG Version: 1.2.0 Build 709)  -->
  <g>
    <g id="Layer_1">
      <rect class="cls-2" x="131.7" y="1.1" width="8.7" height="9.1"/>
      <g>
        <g>
          <path class="cls-1" d="M12.5,46.1h-1.4l-3.2-5v5h-1.6v-8.2h1.4l3.2,5v-5h1.6v8.2Z"/>
          <path class="cls-1" d="M20.2,42.1c0,.9,0,1.5-.1,1.8,0,.6-.3,1-.7,1.4-.6.6-1.3.9-2.2.9s-1.6-.3-2.2-.9c-.4-.4-.6-.8-.7-1.4,0-.3,0-1,0-1.8s0-1.5,0-1.8c.1-.6.3-1,.7-1.4.6-.6,1.3-.9,2.2-.9s1.6.3,2.2.9.6.8.7,1.4c0,.3.1,1,.1,1.8ZM18.6,42.1c0-.6,0-1,0-1.2,0-.5-.2-.9-.4-1.1-.3-.3-.6-.4-1-.4s-.8.1-1,.4c-.2.2-.3.6-.4,1.1,0,.1,0,.5,0,1.2s0,1.1,0,1.2c0,.5.2.9.4,1.1.3.3.6.4,1,.4s.8-.2,1.1-.5c.2-.3.3-1,.3-2.2Z"/>
          <path class="cls-1" d="M29.7,46.1h-5.3v-8.2h1.6v6.7h3.7v1.4Z"/>
          <path class="cls-1" d="M32.6,46.1h-1.6v-8.2h1.6v8.2Z"/>
          <path class="cls-1" d="M41.9,46.1h-1.6v-4.8l-1.6,3.1h-1.1l-1.6-3.1v4.8h-1.6v-8.2h1.6l2.1,4.4,2.1-4.4h1.6v8.2Z"/>
          <path class="cls-1" d="M45.4,46.1h-1.6v-8.2h1.6v8.2Z"/>
          <path class="cls-1" d="M52.5,39.4h-2.1v6.7h-1.6v-6.7h-2.1v-1.4h5.8v1.4Z"/>
          <path class="cls-1" d="M59.1,43.7c0,.8-.3,1.4-.9,1.8-.6.4-1.3.7-2.2.7-1.3,0-2.3-.4-3-1.1l1-1c.5.5,1.1.7,2,.7s1.4-.3,1.4-1,0-.5-.2-.7c-.2-.1-.4-.2-.7-.3h-1c-1.4-.3-2.2-1.1-2.2-2.4s.3-1.3.8-1.8c.5-.5,1.2-.7,2.1-.7s2,.3,2.6.9l-1,1c-.4-.4-.9-.6-1.7-.6s-.7,0-.9.3c-.2.2-.3.4-.3.7s0,.4.3.6.4.3.7.3h1c.7.2,1.2.4,1.6.8.4.4.6,1,.6,1.7Z"/>
          <path class="cls-1" d="M69.1,43.3c0,.8-.3,1.5-.9,2.1-.6.5-1.3.8-2.1.8s-1.6-.3-2.1-.8c-.6-.5-.9-1.2-.9-2.1v-5.4h1.6v5.3c0,.5.1.8.4,1.1s.6.4,1,.4.8-.1,1-.4c.3-.3.4-.6.4-1.1v-5.3h1.6v5.4Z"/>
          <path class="cls-1" d="M77.1,46.1h-1.4l-3.2-5v5h-1.6v-8.2h1.4l3.2,5v-5h1.6v8.2Z"/>
          <path class="cls-1" d="M85,42c0,.9,0,1.5,0,1.8,0,.6-.4,1.1-.8,1.5-.5.5-1.2.8-2.2.8h-2.9v-8.2h2.9c.9,0,1.6.3,2.2.8.4.4.7.9.8,1.5,0,.3,0,.9,0,1.8ZM83.4,42c0-.7,0-1.1,0-1.4,0-.3-.1-.6-.3-.7-.3-.3-.7-.5-1.2-.5h-1.2v5.3h1.2c.5,0,.9-.2,1.2-.5.1-.2.2-.4.3-.8,0-.3,0-.8,0-1.4Z"/>
          <path class="cls-1" d="M92,46.1h-5.4v-8.2h5.4v1.4h-3.8v1.9h3.2v1.4h-3.2v2h3.8v1.4Z"/>
          <path class="cls-1" d="M99.7,46.1h-1.8l-1.6-3.3h-1.1v3.3h-1.6v-8.2h3.2c.8,0,1.5.2,1.9.7.5.5.7,1.1.7,1.8s-.1,1-.4,1.4c-.3.3-.6.6-1,.7l1.8,3.5ZM97.8,40.5c0-.3-.1-.6-.3-.8-.2-.2-.5-.3-.8-.3h-1.5v2.1h1.5c.3,0,.6,0,.8-.3.2-.2.3-.5.3-.8Z"/>
          <path class="cls-1" d="M106.8,42.8c0,1.1-.3,1.9-.8,2.5-.6.6-1.4.9-2.3.9s-1.6-.3-2.2-.9c-.4-.4-.6-.8-.7-1.4,0-.3,0-1,0-1.8s0-1.5,0-1.8c.1-.6.3-1,.7-1.4.6-.6,1.3-.9,2.2-.9s1.6.3,2.2.8c.5.5.8,1.1.9,1.8h-1.6c-.2-.8-.7-1.2-1.5-1.2s-.8.1-1,.4c-.2.2-.3.6-.4,1.1,0,.1,0,.5,0,1.2s0,1.1,0,1.2c0,.5.2.9.4,1.1.3.3.6.4,1,.4s.9-.2,1.1-.5c.2-.3.4-.6.4-1.1v-.3h-1.5v-1.3h3.1v1.2Z"/>
          <path class="cls-1" d="M114.6,46.1h-1.8l-1.6-3.3h-1.1v3.3h-1.6v-8.2h3.2c.8,0,1.5.2,1.9.7.5.5.7,1.1.7,1.8s-.1,1-.4,1.4c-.3.3-.6.6-1,.7l1.8,3.5ZM112.7,40.5c0-.3-.1-.6-.3-.8-.2-.2-.5-.3-.8-.3h-1.5v2.1h1.5c.3,0,.6,0,.8-.3.2-.2.3-.5.3-.8Z"/>
          <path class="cls-1" d="M121.7,42.1c0,.9,0,1.5-.1,1.8,0,.6-.3,1-.7,1.4-.6.6-1.3.9-2.2.9s-1.6-.3-2.2-.9c-.4-.4-.6-.8-.7-1.4,0-.3,0-1,0-1.8s0-1.5,0-1.8c.1-.6.3-1,.7-1.4.6-.6,1.3-.9,2.2-.9s1.6.3,2.2.9.6.8.7,1.4c0,.3.1,1,.1,1.8ZM120.1,42.1c0-.6,0-1,0-1.2,0-.5-.2-.9-.4-1.1-.3-.3-.6-.4-1-.4s-.8.1-1,.4c-.2.2-.3.6-.4,1.1,0,.1,0,.5,0,1.2s0,1.1,0,1.2c0,.5.2.9.4,1.1.3.3.6.4,1,.4s.8-.2,1.1-.5c.2-.3.3-1,.3-2.2Z"/>
          <path class="cls-1" d="M129.2,43.3c0,.8-.3,1.5-.9,2.1-.6.5-1.3.8-2.1.8s-1.6-.3-2.1-.8c-.6-.5-.9-1.2-.9-2.1v-5.4h1.6v5.3c0,.5.1.8.4,1.1s.6.4,1,.4.8-.1,1-.4c.3-.3.4-.6.4-1.1v-5.3h1.6v5.4Z"/>
          <path class="cls-1" d="M137.2,46.1h-1.4l-3.2-5v5h-1.6v-8.2h1.4l3.2,5v-5h1.6v8.2Z"/>
          <path class="cls-1" d="M145,42c0,.9,0,1.5,0,1.8,0,.6-.4,1.1-.8,1.5-.5.5-1.2.8-2.2.8h-2.9v-8.2h2.9c.9,0,1.6.3,2.2.8.4.4.7.9.8,1.5,0,.3,0,.9,0,1.8ZM143.4,42c0-.7,0-1.1,0-1.4,0-.3-.1-.6-.3-.7-.3-.3-.7-.5-1.2-.5h-1.2v5.3h1.2c.5,0,.9-.2,1.2-.5.1-.2.2-.4.3-.8,0-.3,0-.8,0-1.4Z"/>
        </g>
        <g>
          <path class="cls-1" d="M57.4,17.4L65.7,0h-13.1l-7,14.6c3.7,1,7.7,1.9,11.9,2.7Z"/>
          <path class="cls-1" d="M42,13.7l-3.4-13.7h-15.8s-2.3,4.8-2.3,4.8c5.6,3.4,12.8,6.4,21.5,8.9Z"/>
          <path class="cls-1" d="M44.3,17.1l-1,2-.6-2.4c-9-1.9-17.2-4.2-24.8-6.8l-12.1,24.9h13.5l9.3-19.4,5.2,19.4h15.1l7.4-15.5c-4.2-.7-8.2-1.4-12.1-2.3Z"/>
        </g>
        <g>
          <path class="cls-1" d="M72.2,19.8L81.7,0h-13.9l-8.4,17.7c4.1.8,8.3,1.5,12.8,2.1Z"/>
          <path class="cls-1" d="M71.4,21.4c-4.5-.5-8.8-1.1-12.9-1.8l-7.2,15.1h34.9l4.4-9.3h-21.1l1.9-4Z"/>
        </g>
        <g>
          <path class="cls-1" d="M106.7,23.2c0-.6.3-1.3.7-2.1L117.4,0h-13.5l-10.5,21.4c-.1.3-.3.5-.4.8,4.5.4,9,.7,13.8,1Z"/>
          <path class="cls-1" d="M118.5,24.7c-.1.1-.2.2-.3.3-1.4.9-3.4,1.5-5.8,1.5s-4.7,0-5.2-1c-.2-.3-.4-.8-.5-1.3-4.9-.2-9.7-.5-14.3-.8-1.5,3.8-1.5,6.6,0,8.3,1.8,2.1,6.6,3.2,14.3,3.2s14.5-1.1,18.5-3.1c2.9-1.5,5.4-3.7,7.5-6.8-4.9,0-9.6-.1-14.2-.2Z"/>
          <path class="cls-1" d="M131.5,0l-8.1,16.7c-.8,1.7-2.6,5.2-4.1,7.2,4.5.2,9.2.3,13.9.4.6-.9,1.1-1.9,1.6-2.9L145,0h-13.5ZM136.4,7.3v2h-.3v-2l-1.8.4.2-.7-1.9-1.5.5-.3-.3-1.3,1.1.3.2-.6,1.1,1.1-.4-2.3.7.4.7-1.4.7,1.4.7-.4-.4,2.3,1.1-1.1.2.6,1.1-.3-.3,1.3.5.3-1.9,1.5.2.7-1.8-.4Z"/>
        </g>
      </g>
    </g>
  </g>
</svg>