<svg xmlns="http://www.w3.org/2000/svg" id="Layer_1" data-name="Layer 1" viewBox="0 0 294.48 97.77"><defs><style>.cls-1{fill:#fff;}.cls-2{fill:#6bc285;}</style></defs><title>Logo-Vec</title><polygon class="cls-1" points="17.71 67.36 12.62 86.69 8.38 67.36 0 67.36 8.83 97.77 16.4 97.77 25.46 67.36 17.71 67.36"></polygon><path class="cls-1" d="M54.53,89.07l-9.06,30.42h7.75l1.24-4.72h7.05l1,4.72h8.38L62.1,89.07Zm1.33,20.4,2.45-9.32,2,9.32Z" transform="translate(-20.01 -21.71)"></path><polygon class="cls-1" points="142.97 77.69 139.36 67.36 130.98 67.36 138.9 88.02 135.06 97.77 143.33 97.77 154.79 67.36 147.04 67.36 142.97 77.69"></polygon><polygon class="cls-1" points="65.02 67.36 57.22 67.36 57.22 97.77 74.71 97.77 74.71 91.19 65.02 91.19 65.02 67.36"></polygon><polygon class="cls-1" points="89.17 67.36 81.38 67.36 81.38 97.77 98.86 97.77 98.86 91.19 89.17 91.19 89.17 67.36"></polygon><polygon class="cls-1" points="105.53 97.77 125.4 97.77 125.4 91.19 113.32 91.19 113.32 85.7 123.78 85.7 123.78 79.21 113.32 79.21 113.32 73.89 125.4 73.89 125.4 67.36 105.53 67.36 105.53 97.77"></polygon><polygon class="cls-1" points="172.8 97.77 180.6 97.77 180.6 87.27 190.51 87.27 190.51 80.78 180.6 80.78 180.6 73.89 192.09 73.89 192.09 67.36 172.8 67.36 172.8 97.77"></polygon><rect class="cls-1" x="198.94" y="67.36" width="7.8" height="30.42"></rect><path class="cls-1" d="M252.13,104.39c2.79-.68,4.15-2.66,4.15-4.73V92.9a3.73,3.73,0,0,0-4.06-3.83H235.4v30.42h17c2.48,0,4.05-1.49,4.05-3.87V109C256.5,107,254.92,105.07,252.13,104.39Zm-3.38,8.88a.42.42,0,0,1-.45.45h-5.1V107h5.1a.46.46,0,0,1,.45.5Zm0-12.35a.44.44,0,0,1-.45.5h-5.1V95.11h5.1a.46.46,0,0,1,.45.5Z" transform="translate(-20.01 -21.71)"></path><polygon class="cls-1" points="244.41 97.77 264.29 97.77 264.29 91.19 252.21 91.19 252.21 85.7 262.66 85.7 262.66 79.21 252.21 79.21 252.21 73.89 264.29 73.89 264.29 67.36 244.41 67.36 244.41 97.77"></polygon><path class="cls-1" d="M310.75,109.84H311a3.48,3.48,0,0,0,3.42-3.42V92.49A3.42,3.42,0,0,0,311,89.07H291.87v30.42h7.84v-9.64H303l3.79,9.64h7.66Zm-4.15-6.53a.48.48,0,0,1-.41.41h-6.49V95.6h6.49a.48.48,0,0,1,.41.45Z" transform="translate(-20.01 -21.71)"></path><path class="cls-2" d="M147.07,39V75.27H144.6a2.47,2.47,0,0,1-2.47-2.47V39.13a2.57,2.57,0,0,1,2.21-2.6A2.47,2.47,0,0,1,147.07,39Zm44.81-13.3a2.51,2.51,0,0,0-2-4,2.66,2.66,0,0,0-2.11,1.16L156.58,66.19V59l22.14-30.79a2.46,2.46,0,0,0-1.13-3.93,2.51,2.51,0,0,0-2.88.9L156.58,50.44V39.13a2.57,2.57,0,0,0-2.21-2.6A2.47,2.47,0,0,0,151.64,39V75.27H155a2.47,2.47,0,0,0,2-1Z" transform="translate(-20.01 -21.71)"></path></svg>