<?xml version="1.0" encoding="UTF-8"?>
<svg xmlns="http://www.w3.org/2000/svg" version="1.1" viewBox="0 0 177.5 90">
  <defs>
    <style>
      .cls-1 {
        fill: #fff;
      }

      .cls-2 {
        fill: #ec1c24;
      }
    </style>
  </defs>
  <!-- Generator: Adobe Illustrator 28.6.0, SVG Export Plug-In . SVG Version: 1.2.0 Build 709)  -->
  <g>
    <g id="Layer_1">
      <g>
        <rect class="cls-2" x="145.9" y="23.7" width="8.7" height="9.1"/>
        <g>
          <g>
            <path class="cls-1" d="M26.2,68.9h-1.4l-3.2-5v5h-1.6v-8.2h1.4l3.2,5v-5h1.6v8.2Z"/>
            <path class="cls-1" d="M33.9,64.8c0,.9,0,1.5-.1,1.9,0,.6-.3,1-.7,1.4-.6.6-1.3.9-2.2.9s-1.6-.3-2.2-.9c-.4-.4-.6-.8-.7-1.4,0-.3,0-1,0-1.9s0-1.5,0-1.9c.1-.6.3-1,.7-1.4.6-.6,1.3-.9,2.2-.9s1.6.3,2.2.9.6.8.7,1.4c0,.3.1,1,.1,1.9ZM32.3,64.8c0-.6,0-1,0-1.2,0-.5-.2-.9-.4-1.1-.3-.3-.6-.4-1-.4s-.8.1-1,.4c-.2.2-.3.6-.4,1.1,0,.1,0,.5,0,1.2s0,1.1,0,1.2c0,.5.2.9.4,1.1.3.3.6.4,1,.4s.8-.2,1.1-.6c.2-.3.3-1,.3-2.2Z"/>
            <path class="cls-1" d="M43.5,68.9h-5.3v-8.2h1.6v6.8h3.7v1.4Z"/>
            <path class="cls-1" d="M46.4,68.9h-1.6v-8.2h1.6v8.2Z"/>
            <path class="cls-1" d="M55.7,68.9h-1.6v-4.8l-1.6,3.1h-1.1l-1.6-3.1v4.8h-1.6v-8.2h1.6l2.1,4.4,2.1-4.4h1.6v8.2Z"/>
            <path class="cls-1" d="M59.2,68.9h-1.6v-8.2h1.6v8.2Z"/>
            <path class="cls-1" d="M66.4,62.2h-2.1v6.8h-1.6v-6.8h-2.1v-1.4h5.9v1.4Z"/>
            <path class="cls-1" d="M73,66.5c0,.8-.3,1.4-.9,1.8-.6.4-1.3.7-2.2.7-1.3,0-2.3-.4-3-1.1l1-1c.5.5,1.1.7,2,.7s1.4-.3,1.4-1,0-.5-.2-.7c-.2-.1-.4-.2-.7-.3h-1c-1.4-.3-2.2-1.1-2.2-2.4s.3-1.3.8-1.8c.5-.5,1.2-.7,2.1-.7s2,.3,2.6,1l-1,1c-.4-.4-1-.6-1.7-.6s-.7,0-.9.3c-.2.2-.3.4-.3.7s0,.4.3.6.4.3.7.3h1c.7.2,1.2.4,1.6.8.4.4.6,1,.6,1.7Z"/>
            <path class="cls-1" d="M83,66.1c0,.9-.3,1.5-.9,2.1-.6.5-1.3.8-2.1.8s-1.6-.3-2.1-.8c-.6-.5-.9-1.2-.9-2.1v-5.4h1.6v5.3c0,.5.1.8.4,1.1s.6.4,1,.4.8-.1,1-.4c.3-.3.4-.6.4-1.1v-5.3h1.6v5.4Z"/>
            <path class="cls-1" d="M91.1,68.9h-1.4l-3.2-5v5h-1.6v-8.2h1.4l3.2,5v-5h1.6v8.2Z"/>
            <path class="cls-1" d="M98.9,64.8c0,.9,0,1.5,0,1.8,0,.6-.4,1.1-.8,1.6-.5.5-1.2.8-2.2.8h-3v-8.2h3c.9,0,1.6.3,2.2.8.4.4.7.9.8,1.5,0,.3,0,.9,0,1.8ZM97.3,64.8c0-.7,0-1.1,0-1.4,0-.3-.1-.6-.3-.7-.3-.3-.7-.5-1.2-.5h-1.2v5.3h1.2c.5,0,.9-.2,1.2-.5.1-.2.2-.4.3-.8,0-.3,0-.8,0-1.4Z"/>
            <path class="cls-1" d="M106,68.9h-5.4v-8.2h5.4v1.4h-3.8v1.9h3.2v1.4h-3.2v2h3.8v1.4Z"/>
            <path class="cls-1" d="M113.7,68.9h-1.9l-1.6-3.3h-1.1v3.3h-1.6v-8.2h3.2c.8,0,1.5.2,2,.7.5.5.7,1.1.7,1.8s-.1,1-.4,1.4c-.3.3-.6.6-1,.7l1.8,3.5ZM111.8,63.2c0-.3-.1-.6-.3-.8-.2-.2-.5-.3-.8-.3h-1.5v2.1h1.5c.3,0,.6,0,.8-.3.2-.2.3-.5.3-.8Z"/>
            <path class="cls-1" d="M120.9,65.6c0,1.1-.3,2-.8,2.5-.6.6-1.4.9-2.3.9s-1.6-.3-2.2-.9c-.4-.4-.6-.8-.7-1.4,0-.3,0-1,0-1.9s0-1.5,0-1.9c.1-.6.3-1,.7-1.4.6-.6,1.3-.9,2.2-.9s1.6.3,2.2.8c.5.5.8,1.1.9,1.8h-1.6c-.2-.8-.7-1.2-1.5-1.2s-.8.1-1,.4c-.2.2-.3.6-.4,1.1,0,.1,0,.5,0,1.2s0,1.1,0,1.2c0,.5.2.9.4,1.1.3.3.6.4,1,.4s.9-.2,1.1-.5c.2-.3.4-.6.4-1.1v-.3h-1.5v-1.3h3.1v1.2Z"/>
            <path class="cls-1" d="M128.7,68.9h-1.9l-1.6-3.3h-1.1v3.3h-1.6v-8.2h3.2c.8,0,1.5.2,2,.7.5.5.7,1.1.7,1.8s-.1,1-.4,1.4c-.3.3-.6.6-1,.7l1.8,3.5ZM126.8,63.2c0-.3-.1-.6-.3-.8-.2-.2-.5-.3-.8-.3h-1.5v2.1h1.5c.3,0,.6,0,.8-.3.2-.2.3-.5.3-.8Z"/>
            <path class="cls-1" d="M135.8,64.8c0,.9,0,1.5-.1,1.9,0,.6-.3,1-.7,1.4-.6.6-1.3.9-2.2.9s-1.6-.3-2.2-.9c-.4-.4-.6-.8-.7-1.4,0-.3,0-1,0-1.9s0-1.5,0-1.9c.1-.6.3-1,.7-1.4.6-.6,1.3-.9,2.2-.9s1.6.3,2.2.9.6.8.7,1.4c0,.3.1,1,.1,1.9ZM134.2,64.8c0-.6,0-1,0-1.2,0-.5-.2-.9-.4-1.1-.3-.3-.6-.4-1-.4s-.8.1-1,.4c-.2.2-.3.6-.4,1.1,0,.1,0,.5,0,1.2s0,1.1,0,1.2c0,.5.2.9.4,1.1.3.3.6.4,1,.4s.8-.2,1.1-.6c.2-.3.3-1,.3-2.2Z"/>
            <path class="cls-1" d="M143.3,66.1c0,.9-.3,1.5-.9,2.1-.6.5-1.3.8-2.1.8s-1.6-.3-2.1-.8c-.6-.5-.9-1.2-.9-2.1v-5.4h1.6v5.3c0,.5.1.8.4,1.1s.6.4,1,.4.8-.1,1-.4c.3-.3.4-.6.4-1.1v-5.3h1.6v5.4Z"/>
            <path class="cls-1" d="M151.4,68.9h-1.4l-3.2-5v5h-1.6v-8.2h1.4l3.2,5v-5h1.6v8.2Z"/>
            <path class="cls-1" d="M159.2,64.8c0,.9,0,1.5,0,1.8,0,.6-.4,1.1-.8,1.6-.5.5-1.2.8-2.2.8h-3v-8.2h3c.9,0,1.6.3,2.2.8.4.4.7.9.8,1.5,0,.3,0,.9,0,1.8ZM157.6,64.8c0-.7,0-1.1,0-1.4,0-.3-.1-.6-.3-.7-.3-.3-.7-.5-1.2-.5h-1.2v5.3h1.2c.5,0,.9-.2,1.2-.5.1-.2.2-.4.3-.8,0-.3,0-.8,0-1.4Z"/>
          </g>
          <g>
            <path class="cls-1" d="M71.3,40l8.3-17.4h-13.2l-7.1,14.7c3.7,1,7.7,1.9,11.9,2.7Z"/>
            <path class="cls-1" d="M55.8,36.3l-3.4-13.7h-15.8s-2.3,4.8-2.3,4.8c5.6,3.4,12.9,6.4,21.5,8.9Z"/>
            <path class="cls-1" d="M58.2,39.8l-1,2-.6-2.4c-9-1.9-17.3-4.2-24.9-6.8l-12.1,25h13.6l9.3-19.5,5.2,19.5h15.2l7.4-15.6c-4.2-.7-8.3-1.4-12.2-2.3Z"/>
          </g>
          <g>
            <path class="cls-1" d="M86.1,42.5l9.5-19.9h-14l-8.4,17.7c4.1.8,8.4,1.5,12.8,2.1Z"/>
            <path class="cls-1" d="M85.3,44.1c-4.5-.5-8.8-1.1-13-1.8l-7.2,15.2h35l4.4-9.4h-21.1l1.9-4Z"/>
          </g>
          <g>
            <path class="cls-1" d="M120.8,46.7c0-.6.3-1.3.7-2.1l10-21.2h-13.6l-10.5,21.5c-.1.3-.3.5-.4.8,4.5.4,9.1.7,13.8,1Z"/>
            <path class="cls-1" d="M132.6,48.2c-.1.1-.2.2-.3.3-1.4.9-3.4,1.5-5.8,1.5s-4.7,0-5.2-1c-.2-.3-.4-.8-.5-1.3-4.9-.2-9.7-.5-14.3-.8-1.5,3.8-1.5,6.6,0,8.3,1.9,2.1,6.6,3.2,14.3,3.2s14.6-1.1,18.5-3.1c2.9-1.5,5.4-3.7,7.6-6.9-4.9,0-9.6-.1-14.3-.2Z"/>
            <path class="cls-1" d="M145.7,23.4l-8.2,16.7c-.8,1.7-2.7,5.3-4.1,7.2,4.6.2,9.2.3,14,.4.6-.9,1.1-1.9,1.7-2.9l10.2-21.4h-13.6ZM150.6,30.7v2h-.3v-2l-1.8.4.2-.7-1.9-1.5.5-.3-.3-1.3,1.2.3.2-.6,1.1,1.1-.4-2.3.7.4.7-1.4.7,1.4.7-.4-.4,2.3,1.1-1.1.2.6,1.1-.3-.3,1.3.5.3-1.9,1.5.2.7-1.8-.4Z"/>
          </g>
        </g>
      </g>
    </g>
  </g>
</svg>