<?xml version="1.0" encoding="utf-8"?>
<!-- Generator: Adobe Illustrator 28.1.0, SVG Export Plug-In . SVG Version: 6.00 Build 0)  -->
<svg version="1.1" id="Layer_1" xmlns="http://www.w3.org/2000/svg" xmlns:xlink="http://www.w3.org/1999/xlink" x="0px" y="0px"
	 viewBox="0 0 150.5 46.2" style="enable-background:new 0 0 150.5 46.2;" xml:space="preserve">
<style type="text/css">
	.st0{fill:#FFFFFF;}
</style>
<g transform="translate(0.000000,241.000000) scale(0.100000,-0.100000)">
	<path class="st0" d="M282.9,2362.1c-6.3-12.7-6.9-15.2-4.9-16.6c23.9-15.7,59.3-33.6,93.1-46.8c32.6-13,82.4-28.8,82.9-26.5
		c0.2,1.2-4.8,23.4-11.2,49.8c-6.3,26.2-11.9,49.3-12.4,51.4l-0.8,3.6h-69.7h-69.7L282.9,2362.1z"/>
	<path class="st0" d="M539.9,2349.4c-7.4-15.3-19.9-41.7-28.2-58.7c-8.1-17.1-14.3-31.5-13.8-32c2.1-2.1,102.5-24.7,103.8-23.4
		c0.3,0.3,15,30.3,32.3,66.6c17.5,36.3,32.6,67.9,33.9,70.5l2.5,4.4h-58.7h-58.7L539.9,2349.4z"/>
	<path class="st0" d="M683.6,2370.7c-1.8-3.6-17.5-35.9-34.8-72c-20.4-42.7-30.8-66.1-29.7-66.7c3.8-2.3,109.8-19.4,110.9-18
		c0.3,0.3,16.8,34.4,36.6,75.6c19.8,41.2,37.2,77.8,39.1,81.2l3,6.1h-61h-61L683.6,2370.7z"/>
	<path class="st0" d="M992.4,2351.9c-48.3-99.7-76.1-158.9-75.1-159.7c1-1,84.5-7.7,106.3-8.6l9.7-0.3l30.2,62.6
		c16.6,34.4,37.6,78,46.6,96.9l16.5,34.1h-61h-61L992.4,2351.9z"/>
	<path class="st0" d="M1243.1,2361.8c-9.6-20.4-74.7-155.2-82.7-171.4c-3.5-7.1-5.9-13-5.6-13.5c0.5-0.3,27-1.5,59.2-2.6
		c48.3-1.6,58.7-1.5,60.5,0.3c1.8,1.8,88,179.6,95.6,197.1l2.3,5.3h-61h-61.1L1243.1,2361.8z M1309.5,2362.9c2.3-4,4.1-5.4,5.9-4.8
		c2.1,0.8,2.5-0.2,1.5-8.2c-1.2-10.2,0.5-11.9,5.1-4.8c2.5,3.6,3.1,4,4.4,1.6c1-2,2.8-2.5,6.3-1.6c4.9,0.8,4.9,0.8,3.1-4.3
		c-1.3-3.8-1.3-5.8,0-7.4c1.5-1.6,0.2-3.5-5.6-8.2c-4.4-3.6-7.4-7.6-7.4-9.6c0-3.1-0.7-3.3-8.2-2.3c-6.1,0.8-8.2,0.5-8.4-1
		c0-1.6-0.3-1.6-1,0c-0.5,1.5-3.1,1.8-8.9,1c-7.1-1-8.1-0.7-7.1,1.5c0.7,1.8-1.3,4.8-6.1,9.2c-6.3,5.8-7.1,7.3-7.3,14
		c-0.2,7.4,0,7.6,4.3,6.8c3.1-0.7,4.6-0.2,5.4,1.6c0.8,2.3,1.6,2,4.9-2c2.1-2.5,4.4-4.1,5.1-3.6c0.5,0.7,0.3,4.9-0.5,9.6
		c-1.5,7.9-1.3,8.4,1.5,7.6c2.3-0.8,3.8,0.3,5.9,4.8c1.5,3.3,3,5.9,3.1,5.9S1307.5,2366,1309.5,2362.9z M1305.9,2299.1
		c-0.3-2.1-0.7-0.5-0.7,3.6s0.3,5.8,0.7,3.8C1306.2,2304.4,1306.2,2301.1,1305.9,2299.1z"/>
	<path class="st0" d="M248.5,2290.1c-8.4-17-105.6-219.7-105.6-220.5c0-0.5,25.9-0.8,57.7-0.8h57.7l2.3,3.8
		c1.2,2,19.9,40.5,41.5,85.5c21.6,45.2,39.7,81.6,40.4,80.8c0.7-0.7,10.9-37.4,22.7-81.9c11.9-44.3,22.4-82.4,23.2-84.5l1.6-3.6
		l66.1,0.3l66.1,0.5l35.6,73.8c26.9,56,34.9,74.3,33.5,75.3c-1.3,0.7-6.1,1.8-10.7,2.5c-8.2,1-84.2,15-90.8,16.6
		c-3,0.7-4.4-1.3-10.5-15c-4-8.7-7.7-15.2-8.4-14.5c-0.5,0.7-2.8,8.9-4.9,18.3c-3.3,14-4.4,17-7.3,17.6
		c-91,20.6-143.2,34.4-189.5,50.3c-8.2,2.6-15,4.9-15.3,4.9C253.6,2299.5,251.1,2295.2,248.5,2290.1z"/>
	<path class="st0" d="M574.3,2143.9c-19-39.2-34.3-72.3-34.3-73.3c0-1.3,40.9-1.8,154.1-1.8h154.3l18.8,38.7
		c10.2,21.3,19.3,40.2,19.8,42c1,3.3,0.2,3.3-92.1,3.3c-51.3,0-93.3,0.3-93.3,0.7c0,0.2,4.8,10.7,10.7,23.2
		c5.9,12.5,10.7,22.9,10.4,23.1c-0.3,0.3-12.7,2-27.7,4c-15,2-38.9,5.4-53.2,7.6c-14.5,2.3-27.9,4.1-29.7,4.1
		C608.9,2215.3,603.5,2205,574.3,2143.9z"/>
	<path class="st0" d="M903.9,2166.6c-9.7-24.4-11.5-37.9-7.1-52.7c8.4-28.7,39.4-41.4,110.1-45.2c44.2-2.5,100.4,1.3,134.1,9.1
		c40.2,9.2,70.5,24.9,96.6,50.1c13,12.5,30.8,34.3,30.8,37.6c0,1.2-19,2-60.5,2.5l-60.6,0.5l-10.2-7.6c-18-13.7-38.2-18.8-68.7-17.6
		c-26.7,1.2-37.1,7.1-38.6,22.4l-0.7,7.9l-50.6,2.8c-27.7,1.6-54.5,3.3-59.7,4l-9.2,0.8L903.9,2166.6z"/>
	<path class="st0" d="M233.5,2056.9c-15.8-4.4-20.3-13.8-19.4-40.5c0.3-15.3,1-19,4-22.7c5.9-8.1,11.5-11,21.6-11.7
		c11.5-0.8,20.8,3.8,25.9,12.5c3.6,6.3,5.4,27.4,3.5,40.5c-1.5,10.4-9.7,19.6-19.8,22.1C240.9,2059.2,241.3,2059.2,233.5,2056.9z
		 M249.8,2040.9c3.8-3.8,5.8-18.3,4.3-30.7c-1-6.9-2.1-9.9-5.4-12.4c-4.8-3.8-6.8-4-12.5-1.5c-5.9,2.8-8.1,10.9-7.3,27.2
		c0.5,10.2,1.5,14.7,3.8,17.1C236.5,2045,245.5,2045.2,249.8,2040.9z"/>
	<path class="st0" d="M576.8,2057.4c-15.3-3.8-22.4-17.6-16.3-32.1c2.6-6.4,10.5-10.5,22.6-12c4.6-0.5,9.4-2.1,10.7-3.5
		c3.6-3.5,2.1-10.5-2.6-13.2c-4.9-2.5-17-1.5-22.4,2c-3.3,2.3-4,2-8.1-2.3c-2.6-2.6-4-5.4-3.3-6.6c2.3-3.8,14.8-8.2,23.1-8.2
		c18.6,0,28.7,7.1,30.2,21.1c1.3,14.8-5.1,21.6-23.6,24.2c-12.5,1.8-17.6,8.4-11.4,14.7c3,3.1,15.7,3.6,20.8,0.8
		c2.8-1.5,4.1-1,8.2,3l4.8,4.8l-6.3,3.5C595.9,2057.5,584.4,2059.2,576.8,2057.4z"/>
	<path class="st0" d="M996,2056.7c-8.2-2.6-15.5-9.7-17.6-17.3c-2.1-8.2-2-34.4,0.5-41.4c1.2-3.1,4.8-7.9,8.2-10.7
		c5.8-4.6,7.6-5.1,17.6-5.1c8.9,0,12.4,0.7,15.8,3.5c9.1,6.8,11.4,11.5,12,25.5l0.5,13h-14.2h-14.2v-6.6v-6.6h6.6
		c5.8,0,6.6-0.5,6.6-3.8c0-8.9-9.6-14.7-18.3-10.9c-6.3,2.5-8.7,11.5-7.6,28.3c1,15.5,3.6,19.3,12.9,19.3c5.1,0,7.1-1,10.1-4.9
		c3-4.1,4.6-4.9,10.9-4.9c7.1,0,7.3,0.2,6.1,4.4C1028.3,2053.1,1011.5,2061.7,996,2056.7z"/>
	<path class="st0" d="M1126.2,2056.6c-14.3-5.3-17.6-12.2-17.6-37.7c0-16.8,0.3-19.4,3.8-24.2c5.6-8.4,11.5-12,21.3-12.7
		c11.2-1,21.9,4.3,26.4,12.9c6.3,12.2,5.8,41.2-0.8,51.1C1152.1,2056.2,1137.9,2060.8,1126.2,2056.6z M1144.9,2040.7
		c2.8-2.8,3.3-5.4,3.3-20.6c0-16.3-0.3-17.6-4.1-21.4c-2.1-2.3-5.9-4.1-8.2-4.1c-2.3,0-6.1,1.8-8.2,4.1c-3.8,3.6-4.1,5.1-4.1,20.3
		c0,14,0.5,17,3.5,20.8C1131.2,2045.2,1139.9,2045.7,1144.9,2040.7z"/>
	<path class="st0" d="M143.2,2019.8l0.5-37.6h7.4h7.4l0.8,21.4l0.8,21.4l14-21.9l14-21.8l6.6,0.3l6.6,0.5l0.5,37.6l0.3,37.4H194
		h-8.2v-21.8v-21.9l-14.2,21.9l-14.2,21.8h-7.3h-7.3L143.2,2019.8z"/>
	<path class="st0" d="M303.1,2019.8l0.5-37.6l24.4-0.5l24.2-0.5v7.6v7.4h-16.5h-16.5v30.5v30.5H311h-8.2L303.1,2019.8z"/>
	<path class="st0" d="M362.1,2019.3v-37.9h7.4h7.4v37.9v37.9h-7.4h-7.4V2019.3z"/>
	<path class="st0" d="M391.7,2019.3v-37.9h7.4h7.4v21.1l0.2,20.9l6.9-12.7c6.4-11.9,7.3-12.9,12.2-12.9c5.1,0,5.8,0.8,11.9,12.9
		l6.6,12.7l0.2-21.1v-21.1l7.9,0.5l7.7,0.5l0.5,37.6l0.3,37.4H453h-7.9l-9.7-19.8l-9.7-19.6l-9.4,19.6l-9.6,19.8h-7.4h-7.6V2019.3z"
		/>
	<path class="st0" d="M474.1,2019.1v-37.9l7.9,0.5l7.7,0.5l0.5,37.6l0.3,37.4h-8.2h-8.2V2019.1z"/>
	<path class="st0" d="M498.8,2050.6v-6.6h9.9h9.9v-31.3v-31.3h7.4h7.4v31.3v31.3h9.9h9.9v6.6v6.6H526h-27.2V2050.6z"/>
	<path class="st0" d="M642.2,2030.3c0-24.6,0.3-27.5,3.8-34.1c4.9-10.1,15-15.3,27.2-14.3c9.7,0.7,15.5,4.1,21.4,12.7
		c3.5,5.1,3.6,7.1,3.6,33.9v28.7h-7.4h-7.4V2030c0-26.9,0-27.4-4.1-31.3c-4.9-4.9-10.5-5.3-16.3-0.7l-4.3,3.3v28v27.9h-8.2h-8.2
		V2030.3z"/>
	<path class="st0" d="M711.4,2019.1v-37.9l7.9,0.5l7.7,0.5l0.8,21.4l0.8,21.4l14-21.9l13.8-21.9l6.8,0.5l6.6,0.5l0.5,37.6l0.3,37.4
		h-8.2h-8.2v-21.8l-0.2-21.9l-14.2,21.9l-14.2,21.8h-7.1h-7.3V2019.1z"/>
	<path class="st0" d="M783.9,2019.1v-38.1l18.6,0.5c28.8,1,35.8,6.9,37.1,32.5c1.3,24.1-3.6,36.6-16.6,41.4
		c-2.6,1-12.4,1.8-21.9,1.8h-17.1V2019.1z M819.2,2040.6c4.1-3.3,4.3-4,4.3-20.6c0-20.9-1.6-23.7-14.8-23.7h-8.2v23.9v23.9h7.3
		C812.5,2044,816.2,2042.9,819.2,2040.6z"/>
	<path class="st0" d="M851.5,2019.3v-37.9h24.7H901v7.4v7.4h-17.3h-17.3v8.2v8.2h14.8H896v7.4v7.4h-14.8h-14.8v8.2v8.2h17.3H901v6.6
		v6.6h-24.7h-24.7V2019.3z"/>
	<path class="st0" d="M912.5,2019.1v-37.9l7.9,0.5l7.7,0.5l0.5,14.5l0.5,14.3h4.4c4.1,0,5.3-1.5,11.9-14.8l7.3-14.8h8.7
		c4.8,0,8.7,0.3,8.7,0.7s-3.6,7.4-8.1,16l-8.2,15.3l5.9,5.1c4.9,4.3,5.9,6.3,6.6,13.2c0.8,10.5-3.1,18.6-11,22.6
		c-4.4,2.3-9.9,3-24.2,3h-18.6V2019.1z M948.7,2040.7c7.6-7.6,1.5-16.5-11.5-16.5H929v9.9v9.9h8.2
		C943.3,2044,946.3,2043.2,948.7,2040.7z"/>
	<path class="st0" d="M1044.3,2019.5v-38.1h7.4h7.4v14.8v14.8h5.4c5.4,0,5.8-0.5,12.4-14.8l6.8-14.8h8.2c5.3,0,8.4,0.7,8.4,1.8
		s-3.5,8.2-7.6,15.8l-7.6,13.8l5.9,5.8c9.9,9.6,9.6,23.1-0.8,33c-4.9,4.6-5.4,4.8-25.5,5.3l-20.4,0.7V2019.5z M1079.6,2041.4
		c4-3.8,3.3-11.5-1-14.5c-2.1-1.5-7.1-2.6-11.5-2.6h-7.9v9.9v9.9h8.9C1074,2044,1077.9,2043.2,1079.6,2041.4z"/>
	<path class="st0" d="M1174.9,2027.7c0.5-32.3,1-33.9,11.9-42c6.4-4.9,25.2-4.9,31.6,0c10.9,8.1,11.4,9.7,11.9,42l0.5,29.5h-7.4
		h-7.6v-25.9c0-17.3-0.7-27.4-2.1-30c-2.6-5.4-9.9-7.6-16-5.1c-6.8,2.8-8.2,9.4-8.2,37.6v23.4h-7.6h-7.6L1174.9,2027.7z"/>
	<path class="st0" d="M1243.7,2019.3v-37.9h7.4h7.3l0.5,22.7l0.5,22.6l14.7-22.7l14.7-22.6h6.3h6.4v37.9v37.9h-7.4h-7.3l-0.5-21.8
		l-0.5-21.8l-14,21.8l-14,21.8h-6.9h-7.1V2019.3z"/>
	<path class="st0" d="M1316.3,2019.3v-38.2l18.6,0.5c21.6,0.8,27.5,3.3,33.1,13.8c3,5.6,3.5,9.6,3.5,24.7c0,15.2-0.5,19.1-3.3,23.7
		c-6.4,10.9-10.4,12.5-32.3,13l-19.6,0.7V2019.3z M1351.7,2039.9c3.8-3.6,4.1-5.1,4.1-20.6c0-20.6-1.6-23.1-15.7-23.1h-9.1v23.9
		v23.9h8.2C1346.1,2044,1348.6,2043.2,1351.7,2039.9z"/>
</g>
</svg>
