<svg xmlns="http://www.w3.org/2000/svg" xmlns:xlink="http://www.w3.org/1999/xlink" id="Layer_2_00000107586218745483843260000013989258382142943903_" x="0px" y="0px" viewBox="0 0 120 36" style="enable-background:new 0 0 120 36;" xml:space="preserve"><style type="text/css">	.st0{fill:#231F20;}	.st1{fill:#007CBA;}	.st2{fill:#DA291C;}</style><g id="Layer_1-2">	<path class="st0" d="M30.1,32.1v-2.2h-0.7l0.1-0.6h0.6v-0.9l0.8-0.2v1.1H32l-0.1,0.6h-1V32c0,0.5,0.2,0.6,0.5,0.6  c0.2,0,0.4-0.1,0.6-0.2l0.1,0.6c-0.2,0.1-0.6,0.2-1,0.2C30.5,33.3,30.1,32.9,30.1,32.1"></path>	<path class="st0" d="M36.1,31.2c0-0.8-0.5-1.4-1.4-1.4s-1.3,0.7-1.3,1.4s0.5,1.4,1.3,1.4S36.1,32,36.1,31.2 M32.6,31.2  c0-1.2,0.9-2.1,2.1-2.1s2.1,0.8,2.1,2.1c0,1.2-0.9,2.1-2.1,2.1S32.6,32.5,32.6,31.2"></path>	<path class="st0" d="M41.1,31.2c0-0.8-0.5-1.4-1.3-1.4c-0.8,0-1.3,0.6-1.3,1.4s0.5,1.4,1.3,1.4C40.6,32.6,41.1,32,41.1,31.2   M37.9,34.7L38,34c0.4,0.3,1,0.5,1.6,0.5c1,0,1.4-0.6,1.4-1.5v-0.6l0,0c-0.3,0.5-0.8,0.8-1.4,0.8c-1.2,0-1.9-0.9-1.9-2  c0-1.1,0.8-2.1,1.9-2.1c0.6,0,1.2,0.3,1.5,0.8l0,0c0-0.2,0-0.5,0.1-0.7h0.7V33c0,1.3-0.7,2.2-2.2,2.2C39.1,35.2,38.4,35,37.9,34.7"></path>	<path class="st0" d="M46.1,30.9c0-0.7-0.4-1.2-1.2-1.2s-1.2,0.7-1.3,1.2H46.1z M43,31.3c0-1.2,0.9-2.1,2-2.1c1.2,0,1.9,0.8,1.9,2  v0.2h-3.2c0,0.7,0.6,1.3,1.4,1.3c0.6,0,1.1-0.2,1.4-0.4l0.1,0.6c-0.4,0.2-0.9,0.4-1.6,0.4C43.9,33.3,43,32.5,43,31.3"></path>	<path class="st0" d="M48.1,32.1v-2.2h-0.7l0.1-0.6h0.6v-0.9l0.8-0.2v1.1H50l-0.1,0.6h-1V32c0,0.5,0.2,0.6,0.5,0.6  c0.2,0,0.4-0.1,0.6-0.2l0.1,0.6c-0.2,0.1-0.6,0.2-1,0.2C48.4,33.3,48.1,32.9,48.1,32.1"></path>	<path class="st0" d="M50.8,27.1l0.8-0.1v3.1l0,0c0.2-0.5,0.7-0.8,1.3-0.8c1.1,0,1.4,0.8,1.4,1.6v2.4h-0.8v-2.2  c0-0.6-0.2-1.2-0.9-1.2c-0.6,0-1.1,0.5-1.1,1.4v2h-0.8C50.8,33.2,50.8,27.1,50.8,27.1z"></path>	<path class="st0" d="M58.5,30.9c0-0.7-0.4-1.2-1.2-1.2s-1.2,0.7-1.3,1.2H58.5z M55.3,31.3c0-1.2,0.9-2.1,2-2.1c1.2,0,1.9,0.8,1.9,2  v0.2H56c0,0.7,0.6,1.3,1.4,1.3c0.6,0,1.1-0.2,1.4-0.4l0.1,0.6c-0.4,0.2-0.9,0.4-1.6,0.4C56.2,33.3,55.3,32.5,55.3,31.3"></path>	<path class="st0" d="M60.2,30.3v-1H61c0,0.2,0.1,0.5,0.1,0.7l0,0c0.2-0.5,0.6-0.9,1.1-0.9c0.2,0,0.4,0,0.4,0.1l-0.1,0.7  c-0.1,0-0.2-0.1-0.4-0.1c-0.7,0-1,0.7-1,1.4v2h-0.8C60.2,33.2,60.2,30.3,60.2,30.3z"></path>	<polygon class="st0" points="64.4,29.3 65.2,29.3 66.1,32.3 66.1,32.3 67.1,29.3 67.9,29.3 68.9,32.3 68.9,32.3 69.7,29.3   70.6,29.3 69.3,33.2 68.5,33.2 67.5,30.2 67.4,30.2 66.5,33.2 65.6,33.2  "></polygon>	<path class="st0" d="M71.4,29.3h0.8v3.9h-0.8C71.4,33.2,71.4,29.3,71.4,29.3z M71.3,27.9c0-0.3,0.2-0.5,0.5-0.5s0.5,0.2,0.5,0.5  s-0.2,0.5-0.5,0.5S71.3,28.1,71.3,27.9"></path>	<path class="st0" d="M73.6,32.1v-2.2h-0.7l0.1-0.6h0.6v-0.9l0.8-0.2v1.1h1.1l-0.1,0.6h-1V32c0,0.5,0.2,0.6,0.5,0.6  c0.2,0,0.4-0.1,0.6-0.2l0.1,0.7c-0.2,0.1-0.6,0.2-1,0.2C74,33.3,73.6,32.9,73.6,32.1"></path>	<path class="st0" d="M76.4,27.1l0.8-0.1v3.1l0,0c0.2-0.5,0.7-0.8,1.3-0.8c1.1,0,1.4,0.8,1.4,1.6v2.4h-0.8v-2.2  c0-0.6-0.2-1.2-0.9-1.2c-0.6,0-1.1,0.5-1.1,1.4v2h-0.8v-6.2C76.3,27.1,76.4,27.1,76.4,27.1z"></path>	<path class="st1" d="M100.8,30.7c0.4,0,0.8,0.1,1,0.2v1.2c-0.1,0-0.6,0.2-1.2,0.2c-0.8,0-1.2-0.3-1.2-0.8  C99.5,31,99.8,30.7,100.8,30.7 M100.4,33.8h0.4c1,0,2.2-0.3,2.5-0.4c0.1,0,0.4-0.1,0.4-0.4v-3.3c0-1.1-0.2-1.7-0.7-2.2  c-0.5-0.4-1.3-0.7-2.4-0.7c-0.7,0-1.5,0.1-2,0.3c-0.2,0.1-0.3,0.2-0.3,0.4v0.8c0,0.2,0.1,0.3,0.5,0.3c0.4-0.1,1.1-0.2,1.8-0.2  c0.9,0,1.3,0.4,1.3,1v0.2c-0.4-0.1-0.8-0.2-1.3-0.2c-1.8,0-2.9,0.8-2.9,2.3C97.6,32.9,98.5,33.8,100.4,33.8 M107.5,33.7  c1,0,1.7-0.4,2-0.6c0.4,0.3,1,0.6,2,0.6c1.6,0,2.8-0.7,2.8-2.4v-4c0-0.2-0.1-0.4-0.4-0.4h-1.2c-0.2,0-0.4,0.1-0.4,0.4v3.9  c0,0.4-0.3,0.9-1,0.9c-0.5,0-0.9-0.2-0.9-0.6v-4.1c0-0.2-0.1-0.4-0.4-0.4h-1.2c-0.2,0-0.4,0.1-0.4,0.4v4.1c0,0.5-0.5,0.6-1,0.6  c-0.7,0-0.9-0.4-0.9-0.9v-3.9c0-0.2-0.1-0.4-0.4-0.4h-1.2c-0.2,0-0.4,0.1-0.4,0.4v4C104.8,32.9,105.9,33.7,107.5,33.7 M83.1,33.2  c0,0,1.2,0.5,2.6,0.5l0,0c2.4,0,3.6-1,3.6-2.7c0-1.8-1.2-2.4-2.7-2.9s-1.7-0.8-1.7-1.2s0.5-0.7,1.3-0.7s1.8,0.2,2.1,0.3  c0.3,0.1,0.4-0.1,0.4-0.3v-0.9c0-0.2-0.1-0.4-0.4-0.4c-0.6-0.2-1.4-0.3-2.4-0.3c-1.5,0-3.1,0.7-3.1,2.5c0,1.4,0.9,2.2,2.7,2.7  c1.3,0.4,1.8,0.8,1.8,1.3c0,0.6-0.5,0.9-1.6,0.9c-1.1,0-2.2-0.4-2.6-0.5c-0.3-0.1-0.4,0.1-0.4,0.3v1C82.7,33,82.9,33.1,83.1,33.2   M90.6,33.6h1.3c0.2,0,0.4-0.1,0.4-0.4v-4.1c0-0.5,0.6-0.8,1.3-0.8c0.4,0,0.7,0.1,0.9,0.3c0.2,0.2,0.2,0.4,0.2,0.7v3.9  c0,0.2,0.1,0.4,0.4,0.4h1.3c0.2,0,0.4-0.1,0.4-0.4v-3.9c0-1.8-1.1-2.6-2.6-2.6c-0.5,0-1.3,0.1-1.9,0.5v-2.5c0-0.2-0.1-0.4-0.4-0.4  h-1.3c-0.2,0-0.4,0.1-0.4,0.4v8.4C90.3,33.5,90.4,33.6,90.6,33.6 M115.9,36c0.1,0,0.3-0.1,0.3-0.1c2.2-1.2,3.8-3.4,3.8-6.3  s-1.6-5.1-3.8-6.2c-0.1,0-0.2-0.1-0.3-0.1c-0.2,0-0.3,0.1-0.3,0.3v1.3c0,0.2,0.1,0.3,0.2,0.4l0.1,0.1c1.5,1,2.3,2.4,2.3,4.3  c0,1.8-0.9,3.3-2.3,4.3c-0.1,0-0.1,0.1-0.1,0.1c-0.1,0.1-0.2,0.2-0.2,0.4v1.3C115.6,35.9,115.7,36,115.9,36"></path>	<path class="st2" d="M18.8,18.6c-0.9,0.4-2.3,0.9-3.9,0.9c-5,0-9.2-4.2-10.7-7.9C3.8,12.1,3,13.5,3,15.7c0,3.2,3,6.2,8,6.2  C14.2,21.8,16.9,20.5,18.8,18.6 M3.3,18.7c-0.4-0.9-0.9-2.2-0.9-3.8c0-5,4.2-9.2,8-10.7C9.9,3.8,8.5,3,6.2,3C3,3,0,6,0,10.9  C0,14,1.3,16.8,3.3,18.7 M3.2,3.3c0.9-0.4,2.3-0.9,3.9-0.9c5,0,9.2,4.2,10.7,7.9C18.2,9.8,19,8.4,19,6.2C19,3,16,0,11,0  C7.8,0,5.1,1.3,3.2,3.3 M22,10.9c0,4.9-3,7.9-6.2,7.9c-2.2,0-3.7-0.8-4.2-1.2c3.7-1.5,8-5.7,8-10.7c0-1.6-0.5-2.9-0.9-3.8  C20.6,5,22,7.8,22,10.9"></path>	<path class="st2" d="M55.9,10.9c0-3.6-1.5-5.9-4.6-5.9c-3.1,0-4.6,2.2-4.6,5.9s1.6,5.9,4.6,5.9C54.3,16.8,55.9,14.6,55.9,10.9   M43.6,10.9c0-5,2.9-8.4,7.7-8.4S59,6,59,10.9s-3,8.4-7.7,8.4S43.6,16,43.6,10.9"></path>	<polygon class="st2" points="80.6,2.7 80.6,19.1 90.8,19.1 90.8,16.7 83.6,16.7 83.6,12 89.9,12 89.9,9.5 83.6,9.5 83.6,5.1   89.9,5.1 90.7,2.7  "></polygon>	<path class="st2" d="M71.1,10.3l-0.8,2.4h2.5v3.7c-0.6,0.3-1.3,0.5-2.4,0.5c-3.5,0-5.2-2.3-5.2-5.9s1.8-5.9,5.3-5.9  c1.3,0,2.6,0.4,3.8,1.1l0.8-2.5c-1.3-0.7-3-1.1-4.8-1.1c-5.1,0-8.3,3.7-8.3,8.7c0,4.7,2.8,8.2,8.2,8.2c2.3,0,4.1-0.6,5.6-1.3v-7.7  L71.1,10.3C71.1,10.3,71.1,10.3,71.1,10.3z"></path>	<path class="st2" d="M34.5,10.3c2.5,0,3.1-1.6,3.1-2.6c0-0.9-0.5-2.6-3.1-2.6h-2v5.1L34.5,10.3C34.5,10.3,34.5,10.3,34.5,10.3z   M29.6,2.7h5c4.6,0,6,2.8,6,5c0,3.1-2.4,4.2-3,4.5v0.1c0.3,0.1,1,0.4,1.9,2l2.7,4.8h-3.4L36.5,15c-1-1.7-1.3-2.2-2.9-2.2h-1.1v6.3  h-2.9V2.7C29.6,2.7,29.6,2.7,29.6,2.7z"></path>	<path class="st2" d="M99.9,10.3c2.5,0,3.1-1.6,3.1-2.6c0-0.9-0.5-2.5-3.1-2.5h-2v5.1H99.9z M95,2.7h5c4.6,0,6,2.8,6,5  c0,3.1-2.4,4.2-3,4.5v0.1c0.3,0.1,1,0.4,1.9,2l2.7,4.8h-3.4l-2.4-4.2c-1-1.7-1.3-2.2-2.9-2.2h-1.1v6.4h-2.9L95,2.7  C95,2.7,95,2.7,95,2.7z"></path>	<path class="st2" d="M112.9,6.9c0-1.3,1.2-1.9,2.6-1.9c1.9,0,3.3,0.6,3.6,0.7V3c-0.2-0.1-1.5-0.5-3.9-0.5c-3.6,0-5.6,2.1-5.6,4.5  s2,3.7,3.6,4.5c0.4,0.2,0.8,0.4,1.2,0.6c1.4,0.7,2.4,1.3,2.4,2.5c0,1.4-1.4,2.1-2.8,2.1c-2.4,0-3.8-0.9-4-1l-0.8,2.4  c0.2,0.1,2.1,1.1,4.9,1.1c3.4,0,5.9-2,5.9-4.9c0-2.1-1.4-3.4-3.8-4.6c-0.4-0.2-0.7-0.4-1.1-0.6C113.9,8.5,112.9,8,112.9,6.9"></path></g></svg>